<?xml version="1.0" encoding="utf-8"?>
<!-- Generator: Adobe Illustrator 17.0.0, SVG Export Plug-In . SVG Version: 6.00 Build 0)  -->
<!DOCTYPE svg PUBLIC "-//W3C//DTD SVG 1.1//EN" "http://www.w3.org/Graphics/SVG/1.1/DTD/svg11.dtd">
<svg version="1.1" id="Layer_1" xmlns="http://www.w3.org/2000/svg" xmlns:xlink="http://www.w3.org/1999/xlink" x="0px" y="0px"
	 width="85.7px" height="17.703px" viewBox="0 0 85.7 17.703" enable-background="new 0 0 85.7 17.703" xml:space="preserve">
<g>
	<path fill="#FFFFFF" d="M0.021,12.789c0.252-0.084,0.455-0.161,0.609-0.231c0.154-0.07,0.297-0.144,0.431-0.221
		c0.133-0.077,0.199-0.15,0.199-0.22V7.539C0.882,7.343,0.578,7.158,0.347,6.982C0.116,6.808,0,6.559,0,6.237
		c0-0.056,0.003-0.122,0.011-0.199c0.007-0.077,0.01-0.123,0.01-0.137c0.644-0.476,1.208-0.927,1.69-1.354
		C2.194,4.12,2.636,3.679,3.035,3.224s0.78-0.941,1.145-1.459C4.543,1.246,4.935,0.658,5.355,0l1.05,0.651v3.948
		c0.182,0.028,0.42,0.06,0.714,0.094C7.413,4.729,7.7,4.792,7.98,4.882C8.26,4.974,8.505,5.1,8.715,5.261
		c0.21,0.161,0.315,0.375,0.315,0.64c0,0.588-0.22,0.98-0.661,1.176C7.928,7.273,7.336,7.315,6.594,7.203v5.04
		c0.084,0,0.241-0.021,0.472-0.063s0.469-0.07,0.714-0.084s0.458,0.014,0.641,0.084c0.182,0.07,0.273,0.217,0.273,0.441
		c0,0.238-0.192,0.521-0.577,0.851c-0.385,0.329-0.833,0.651-1.344,0.966c-0.511,0.315-1.022,0.595-1.533,0.84
		c-0.511,0.245-0.885,0.396-1.123,0.452c-0.28-0.196-0.63-0.399-1.05-0.609s-0.833-0.434-1.239-0.672
		c-0.406-0.238-0.777-0.494-1.113-0.767S0.147,13.111,0.021,12.789z"/>
	<path fill="#FFFFFF" d="M17.031,1.974c0.112,0.056,0.273,0.119,0.483,0.189c0.21,0.07,0.322,0.112,0.336,0.126l2.856,3.612
		c0,0.014,0.003,0.077,0.011,0.189c0.007,0.112,0.01,0.203,0.01,0.273c0,0.364-0.144,0.669-0.43,0.914
		c-0.287,0.245-0.645,0.462-1.071,0.651c-0.427,0.189-0.889,0.36-1.386,0.514c-0.497,0.154-0.959,0.319-1.386,0.494
		c-0.427,0.175-0.784,0.375-1.071,0.599c-0.287,0.224-0.431,0.49-0.431,0.798c0,0.238,0.105,0.448,0.315,0.63
		c0.21,0.182,0.465,0.336,0.767,0.462c0.301,0.126,0.62,0.224,0.956,0.294c0.336,0.07,0.623,0.105,0.861,0.105
		c0.252,0,0.476-0.021,0.672-0.063c0.196-0.042,0.389-0.084,0.578-0.126s0.381-0.084,0.578-0.126
		c0.196-0.042,0.42-0.063,0.672-0.063c0.238,0,0.431,0.039,0.578,0.116c0.147,0.077,0.22,0.213,0.22,0.41
		c0,0.126-0.126,0.304-0.378,0.535s-0.57,0.487-0.956,0.767c-0.385,0.28-0.815,0.567-1.292,0.861
		c-0.476,0.294-0.941,0.56-1.396,0.798s-0.871,0.434-1.25,0.588c-0.378,0.154-0.665,0.231-0.861,0.231
		c-0.546,0-1.131-0.144-1.753-0.431c-0.623-0.287-1.201-0.644-1.732-1.071c-0.532-0.427-0.977-0.889-1.333-1.386
		C9.838,12.366,9.66,11.9,9.66,11.466V5.565c0-0.252,0.144-0.518,0.431-0.798c0.287-0.28,0.651-0.553,1.092-0.819
		s0.938-0.518,1.491-0.756c0.553-0.238,1.092-0.448,1.617-0.63c0.525-0.182,1.011-0.326,1.459-0.431s0.798-0.157,1.05-0.157H17.031z
		 M14.574,8.19c-0.014,0,0.042-0.021,0.168-0.063s0.266-0.094,0.42-0.157c0.154-0.063,0.297-0.133,0.431-0.21
		c0.133-0.077,0.199-0.15,0.199-0.22c0-0.014-0.052-0.105-0.157-0.273s-0.193-0.294-0.263-0.378
		C15.33,6.86,15.27,6.797,15.193,6.699c-0.077-0.098-0.161-0.2-0.252-0.305C14.85,6.29,14.77,6.188,14.7,6.09
		c-0.07-0.098-0.112-0.161-0.126-0.189V8.19z"/>
	<path fill="#FFFFFF" d="M21.776,8.715v-0.42c0-0.252,0.003-0.483,0.011-0.693c0.007-0.21,0.01-0.441,0.01-0.693v-0.42
		c0.084-0.602,0.322-1.099,0.714-1.491c0.392-0.392,0.857-0.721,1.396-0.987s1.113-0.5,1.722-0.704s1.179-0.423,1.711-0.662
		c0.154-0.07,0.287-0.14,0.399-0.21c0.112-0.07,0.221-0.129,0.326-0.179c0.105-0.049,0.217-0.091,0.336-0.126
		c0.119-0.035,0.263-0.052,0.431-0.052c0.266,0,0.504,0.056,0.714,0.168c0.21,0.112,0.417,0.249,0.62,0.41
		c0.203,0.161,0.409,0.329,0.619,0.504c0.21,0.175,0.455,0.325,0.735,0.451c0.168,0.098,0.388,0.189,0.661,0.273
		c0.273,0.084,0.539,0.179,0.798,0.284c0.259,0.105,0.486,0.231,0.683,0.378c0.196,0.147,0.294,0.34,0.294,0.578
		c0,0.154-0.042,0.27-0.126,0.347s-0.182,0.14-0.294,0.189c-0.112,0.049-0.231,0.102-0.357,0.157
		c-0.126,0.056-0.238,0.126-0.336,0.21c-0.112,0.462-0.168,0.868-0.168,1.218c0,0.336,0,0.728,0,1.176v0.84v0.336v0.924v0.168
		c0,0.042,0.007,0.13,0.021,0.263c0.014,0.133,0.039,0.276,0.074,0.43c0.035,0.154,0.091,0.291,0.168,0.41
		c0.077,0.119,0.178,0.179,0.304,0.179c0.154,0,0.266-0.028,0.336-0.084c0.07-0.056,0.175-0.084,0.315-0.084
		c0.042,0,0.094,0.028,0.157,0.084c0.063,0.056,0.126,0.126,0.189,0.21s0.119,0.168,0.168,0.252s0.074,0.154,0.074,0.21
		c0,0.098-0.007,0.168-0.021,0.21c-0.014,0.042-0.042,0.081-0.084,0.115c-0.042,0.035-0.098,0.067-0.168,0.095
		c-0.07,0.028-0.161,0.077-0.273,0.147c-0.112,0.112-0.294,0.266-0.546,0.462c-0.252,0.196-0.525,0.399-0.819,0.609
		s-0.57,0.413-0.83,0.609s-0.438,0.343-0.535,0.441H30.89c-0.336,0-0.654-0.116-0.955-0.347c-0.301-0.231-0.578-0.49-0.83-0.777
		c-0.252-0.287-0.473-0.546-0.662-0.777s-0.333-0.347-0.431-0.347c-0.196,0-0.42,0.116-0.672,0.347s-0.521,0.49-0.809,0.777
		c-0.287,0.287-0.581,0.546-0.882,0.777c-0.301,0.231-0.585,0.347-0.851,0.347c-0.252,0-0.469-0.06-0.651-0.179
		c-0.182-0.119-0.364-0.248-0.546-0.388c-0.756-0.602-1.25-1.253-1.48-1.953s-0.347-1.47-0.347-2.31V8.715z M26.942,11.865
		c0,0.07,0.056,0.126,0.168,0.168h0.063h0.084c0.042-0.028,0.098-0.077,0.168-0.147c0.07-0.07,0.144-0.14,0.221-0.21
		c0.077-0.07,0.14-0.143,0.189-0.22c0.049-0.077,0.073-0.137,0.073-0.179v-5.25c-0.112-0.084-0.203-0.154-0.273-0.21
		c-0.098-0.07-0.192-0.164-0.283-0.283c-0.091-0.119-0.172-0.192-0.242-0.221h-0.105h-0.063l-0.126,0.588v0.168v0.987v0.399v2.226
		c0,0.336,0.007,0.682,0.021,1.04C26.851,11.078,26.886,11.459,26.942,11.865z"/>
	<path fill="#FFFFFF" d="M42.923,1.963c0.028-0.007,0.063-0.01,0.105-0.01c0.168,0,0.329,0.066,0.483,0.199
		c0.154,0.133,0.294,0.28,0.42,0.441c0.126,0.161,0.238,0.312,0.336,0.452c0.098,0.14,0.168,0.217,0.21,0.231
		c0.056,0.098,0.161,0.277,0.315,0.536c0.154,0.259,0.318,0.532,0.493,0.819c0.175,0.287,0.339,0.553,0.494,0.798
		c0.154,0.245,0.259,0.402,0.315,0.472c0.014,0.084,0.021,0.14,0.021,0.168c0,0.252-0.157,0.487-0.472,0.704
		c-0.315,0.217-0.68,0.41-1.092,0.578c-0.413,0.168-0.826,0.301-1.239,0.399c-0.413,0.098-0.711,0.147-0.893,0.147
		c-0.28,0-0.529-0.084-0.746-0.252c-0.217-0.168-0.406-0.364-0.567-0.588c-0.161-0.224-0.301-0.444-0.42-0.662
		c-0.119-0.217-0.221-0.381-0.305-0.494v4.578c0,0.224,0.108,0.42,0.326,0.588c0.217,0.168,0.479,0.308,0.787,0.42
		c0.308,0.112,0.623,0.196,0.945,0.252c0.322,0.056,0.588,0.084,0.798,0.084c0.42,0,0.801-0.06,1.145-0.179
		c0.343-0.119,0.704-0.179,1.082-0.179c0.252,0,0.423,0.07,0.515,0.21c0.091,0.14,0.136,0.287,0.136,0.441
		c0,0.14-0.01,0.252-0.031,0.336s-0.063,0.157-0.126,0.22s-0.147,0.126-0.252,0.189s-0.249,0.144-0.431,0.242
		c-0.126,0.07-0.319,0.175-0.578,0.315c-0.259,0.14-0.546,0.298-0.861,0.473c-0.315,0.175-0.651,0.357-1.008,0.546
		c-0.357,0.189-0.693,0.371-1.008,0.546c-0.315,0.175-0.602,0.329-0.861,0.462c-0.259,0.133-0.452,0.228-0.578,0.284
		c-0.028,0-0.087,0.003-0.179,0.011c-0.091,0.007-0.171,0.01-0.241,0.01c-0.364,0-0.826-0.123-1.386-0.368
		c-0.56-0.245-1.103-0.549-1.627-0.913c-0.525-0.364-0.973-0.756-1.344-1.176c-0.371-0.42-0.557-0.812-0.557-1.176V5.25
		c0-0.196,0.07-0.378,0.21-0.546c0.14-0.168,0.315-0.322,0.525-0.462s0.431-0.263,0.662-0.368s0.444-0.192,0.641-0.263
		c0.154-0.042,0.381-0.105,0.683-0.189c0.301-0.084,0.64-0.178,1.018-0.283c0.378-0.105,0.77-0.217,1.176-0.336
		c0.406-0.119,0.798-0.231,1.176-0.336s0.714-0.203,1.008-0.294c0.294-0.091,0.518-0.157,0.672-0.199
		C42.86,1.974,42.895,1.971,42.923,1.963z"/>
	<path fill="#FFFFFF" d="M47.186,12.117c0.07-0.042,0.207-0.102,0.41-0.179c0.203-0.077,0.339-0.123,0.409-0.136
		c0.07-0.056,0.158-0.123,0.263-0.2c0.105-0.077,0.158-0.123,0.158-0.137V5.775c-0.21,0-0.417,0.014-0.62,0.042
		c-0.203,0.028-0.382,0.039-0.536,0.032c-0.154-0.007-0.28-0.053-0.378-0.137c-0.098-0.084-0.147-0.245-0.147-0.483
		c0-0.168,0.024-0.301,0.074-0.399c0.049-0.098,0.126-0.189,0.231-0.273s0.238-0.171,0.399-0.263
		c0.161-0.091,0.346-0.213,0.556-0.367c0.126-0.056,0.326-0.179,0.599-0.368s0.56-0.389,0.861-0.599
		c0.301-0.21,0.581-0.41,0.84-0.599c0.259-0.189,0.444-0.318,0.557-0.388c0.056,0,0.122-0.003,0.199-0.011
		c0.077-0.007,0.15-0.01,0.221-0.01c0.462,0,0.872,0.15,1.229,0.451c0.357,0.301,0.658,0.662,0.903,1.082
		c0.245,0.42,0.427,0.854,0.546,1.302c0.119,0.448,0.179,0.819,0.179,1.113c0,0.252,0.01,0.683,0.031,1.292S54.2,8.463,54.2,9.177
		c0,0.35-0.004,0.696-0.011,1.039c-0.007,0.343-0.01,0.662-0.01,0.956c0,0.28-0.007,0.532-0.021,0.756
		c-0.014,0.224-0.021,0.399-0.021,0.525c0.252-0.084,0.455-0.158,0.609-0.221c0.154-0.063,0.297-0.133,0.431-0.21
		c0.133-0.077,0.199-0.15,0.199-0.22V5.901c-0.056-0.056-0.126-0.143-0.21-0.262S54.998,5.39,54.914,5.25
		c-0.084-0.14-0.161-0.27-0.231-0.389c-0.07-0.119-0.112-0.206-0.126-0.262V4.431V4.263c1.498-0.532,2.723-1.295,3.675-2.289
		c0.084,0.07,0.228,0.178,0.431,0.325c0.203,0.147,0.431,0.308,0.683,0.483c0.252,0.175,0.511,0.354,0.777,0.535
		c0.266,0.182,0.511,0.343,0.735,0.483c0.294,0.21,0.511,0.364,0.651,0.462c0.14,0.098,0.238,0.168,0.294,0.21
		c0.056,0.042,0.091,0.073,0.105,0.094c0.014,0.021,0.042,0.06,0.084,0.116v0.231c0,0.294-0.067,0.528-0.2,0.704
		c-0.133,0.175-0.36,0.381-0.683,0.619v5.88c0,0.182,0.087,0.287,0.263,0.315c0.175,0.028,0.371,0.049,0.588,0.063
		c0.217,0.014,0.413,0.056,0.588,0.126c0.175,0.07,0.262,0.238,0.262,0.504c0,0.238-0.154,0.504-0.462,0.798
		c-0.308,0.294-0.672,0.578-1.092,0.851c-0.42,0.273-0.854,0.501-1.302,0.683c-0.448,0.182-0.812,0.273-1.092,0.273
		c-0.378,0-0.704-0.087-0.977-0.263c-0.273-0.175-0.536-0.364-0.788-0.567c-0.252-0.203-0.511-0.392-0.777-0.567
		c-0.266-0.175-0.581-0.263-0.945-0.263c-0.378,0-0.728,0.088-1.05,0.263c-0.322,0.175-0.637,0.364-0.945,0.567
		c-0.308,0.203-0.613,0.392-0.914,0.567c-0.301,0.175-0.627,0.263-0.977,0.263h-0.21c-0.154-0.112-0.434-0.284-0.84-0.515
		s-0.829-0.5-1.271-0.809c-0.441-0.308-0.85-0.63-1.229-0.966c-0.378-0.336-0.63-0.665-0.756-0.987
		c-0.014-0.084-0.021-0.154-0.021-0.21C47.165,12.229,47.172,12.187,47.186,12.117z"/>
	<path fill="#FFFFFF" d="M65.351,11.886c-0.084-0.014-0.154-0.021-0.21-0.021c-0.126,0-0.231,0.024-0.315,0.073
		c-0.084,0.049-0.161,0.098-0.231,0.147c-0.07,0.049-0.147,0.098-0.231,0.147c-0.084,0.049-0.175,0.074-0.273,0.074
		c-0.238,0-0.406-0.074-0.504-0.221c-0.098-0.147-0.147-0.318-0.147-0.515v-0.399c0-0.406,0.091-0.773,0.273-1.103
		c0.182-0.329,0.385-0.651,0.609-0.966s0.427-0.644,0.609-0.987c0.182-0.343,0.273-0.731,0.273-1.166
		c0-0.392-0.049-0.742-0.147-1.05c-0.098-0.308-0.207-0.602-0.326-0.882c-0.119-0.28-0.228-0.567-0.326-0.861
		c-0.098-0.294-0.147-0.63-0.147-1.008c0-0.756,0.196-1.347,0.588-1.774c0.392-0.427,1.036-0.641,1.932-0.641
		c0.098,0,0.21-0.003,0.336-0.01c0.126-0.007,0.252,0,0.378,0.021s0.234,0.056,0.325,0.105c0.091,0.049,0.158,0.136,0.2,0.262
		l-0.819,0.735c0.574,0.196,1.057,0.493,1.449,0.893c0.392,0.399,0.728,0.822,1.008,1.271c0.014,0,0.15-0.077,0.41-0.231
		c0.259-0.154,0.553-0.322,0.882-0.504c0.329-0.182,0.662-0.35,0.998-0.504c0.336-0.154,0.588-0.231,0.756-0.231
		c0.196,0,0.402,0.098,0.619,0.294c0.217,0.196,0.42,0.42,0.609,0.672c0.189,0.252,0.343,0.497,0.462,0.735
		C74.51,4.48,74.57,4.641,74.57,4.725v6.09c0,0.084-0.129,0.203-0.388,0.357c-0.259,0.154-0.585,0.329-0.977,0.525
		c-0.392,0.196-0.816,0.403-1.271,0.62c-0.455,0.217-0.879,0.417-1.271,0.599c-0.392,0.182-0.725,0.343-0.998,0.483
		c-0.273,0.14-0.417,0.238-0.431,0.294c-0.028,0.084-0.084,0.273-0.168,0.567c-0.084,0.294-0.168,0.603-0.252,0.924
		c-0.084,0.322-0.165,0.623-0.242,0.903c-0.077,0.28-0.123,0.448-0.136,0.504c-0.084,0.224-0.144,0.406-0.179,0.546
		c-0.035,0.14-0.066,0.252-0.094,0.336c-0.028,0.084-0.081,0.143-0.158,0.178c-0.077,0.035-0.199,0.053-0.367,0.053
		c-0.294,0-0.546-0.116-0.756-0.347s-0.388-0.528-0.535-0.893s-0.27-0.77-0.368-1.218c-0.098-0.448-0.175-0.885-0.231-1.312
		c-0.056-0.427-0.098-0.822-0.126-1.187c-0.028-0.364-0.049-0.644-0.063-0.84C65.505,11.907,65.435,11.9,65.351,11.886z
		 M70.475,9.765V5.796l-0.42-0.357l-0.399,0.357v3.255L70.475,9.765z"/>
	<path fill="#FFFFFF" d="M78.308,15.813c-0.056,0-0.098,0.003-0.126,0.011c-0.028,0.007-0.07,0.01-0.126,0.01
		c-0.14,0-0.284-0.066-0.431-0.2c-0.147-0.133-0.283-0.283-0.409-0.451s-0.235-0.326-0.326-0.473
		c-0.091-0.147-0.144-0.234-0.157-0.262c-0.07-0.084-0.186-0.249-0.347-0.494c-0.161-0.245-0.326-0.507-0.494-0.788
		c-0.168-0.28-0.322-0.542-0.462-0.788c-0.14-0.245-0.217-0.402-0.231-0.472c-0.014-0.084-0.021-0.147-0.021-0.189
		c0-0.224,0.147-0.444,0.441-0.661c0.294-0.217,0.637-0.41,1.029-0.578c0.392-0.168,0.78-0.305,1.166-0.41
		c0.385-0.105,0.661-0.157,0.829-0.157c0.196,0,0.364,0.049,0.504,0.147L75.305,7.14V5.313c0-0.182,0.063-0.357,0.189-0.525
		s0.284-0.318,0.473-0.452c0.189-0.133,0.396-0.252,0.62-0.357c0.224-0.105,0.434-0.192,0.63-0.263
		c0.224-0.07,0.588-0.182,1.092-0.336c0.504-0.154,1.036-0.315,1.596-0.483c0.56-0.168,1.092-0.333,1.596-0.494
		c0.504-0.161,0.861-0.283,1.071-0.367c0.056,0,0.098-0.007,0.126-0.021c0.028-0.014,0.056-0.021,0.084-0.021
		c0.168,0,0.326,0.07,0.473,0.21c0.147,0.14,0.276,0.294,0.388,0.462c0.112,0.168,0.207,0.326,0.284,0.473
		c0.077,0.147,0.136,0.228,0.178,0.241c0.056,0.084,0.154,0.256,0.294,0.515c0.14,0.259,0.294,0.532,0.462,0.819
		c0.168,0.287,0.329,0.55,0.483,0.788c0.154,0.238,0.266,0.378,0.336,0.42c0.014,0.126,0.021,0.196,0.021,0.21
		c0,0.252-0.147,0.487-0.441,0.704c-0.294,0.217-0.637,0.41-1.029,0.578s-0.777,0.301-1.155,0.399
		c-0.378,0.098-0.658,0.147-0.84,0.147c-0.252,0-0.483-0.084-0.693-0.252c-0.21-0.168-0.392-0.364-0.546-0.588
		c-0.154-0.224-0.294-0.448-0.42-0.672c-0.126-0.224-0.231-0.399-0.315-0.525l-0.483,0.651l5.901,3.822l-0.084,2.142
		c0,0.196-0.07,0.378-0.21,0.546c-0.14,0.168-0.312,0.322-0.515,0.462c-0.203,0.14-0.417,0.266-0.641,0.378
		c-0.224,0.112-0.413,0.203-0.567,0.273c-0.14,0.042-0.35,0.105-0.63,0.189c-0.28,0.084-0.595,0.179-0.945,0.284
		c-0.35,0.105-0.718,0.217-1.103,0.336c-0.385,0.119-0.753,0.231-1.103,0.336c-0.35,0.105-0.665,0.2-0.945,0.284
		C78.658,15.708,78.447,15.771,78.308,15.813z M81.5,11.823l-1.869-1.365c0.252,0.238,0.444,0.5,0.577,0.788
		c0.133,0.287,0.255,0.507,0.368,0.662L81.5,11.823z"/>
</g>
</svg>
